<?xml version="1.0" encoding="UTF-8" standalone="no"?>
<svg
   viewBox="0 0 22 22"
   version="1.1"
   id="svg12"
   sodipodi:docname="add_up.svg"
   inkscape:version="1.3 (0e150ed6c4, 2023-07-21)"
   xmlns:inkscape="http://www.inkscape.org/namespaces/inkscape"
   xmlns:sodipodi="http://sodipodi.sourceforge.net/DTD/sodipodi-0.dtd"
   xmlns="http://www.w3.org/2000/svg"
   xmlns:svg="http://www.w3.org/2000/svg">
  <defs
     id="defs16" />
  <sodipodi:namedview
     id="namedview14"
     pagecolor="#ffffff"
     bordercolor="#666666"
     borderopacity="1.0"
     inkscape:pageshadow="2"
     inkscape:pageopacity="0.0"
     inkscape:pagecheckerboard="0"
     showgrid="false"
     inkscape:zoom="26.580787"
     inkscape:cx="6.0381959"
     inkscape:cy="11.3804"
     inkscape:window-width="1920"
     inkscape:window-height="1002"
     inkscape:window-x="0"
     inkscape:window-y="0"
     inkscape:window-maximized="1"
     inkscape:current-layer="svg12"
     inkscape:showpageshadow="2"
     inkscape:deskcolor="#d1d1d1" />
  <g
     transform="translate(-553.72-583.12)"
     id="g10">
    <path
       fill="#eff0f1"
       color="#000"
       d="m553.72 583.12h22v22h-22z"
       id="path2" />
    <g
       fill="#4d4d4d"
       id="g8">
      <path
         transform="matrix(0 1-1 0 0 0)"
         d="m594.12-571.72h1v15h-1z"
         id="path4" />
      <path
         d="m563.72 587.12h1v15h-1z"
         id="path6" />
    </g>
  </g>
  <path
     style="fill:none;stroke-width:0.0376212"
     d="M 0,11.004189 V 0.01881058 H 10.985378 21.970757 V 11.004189 21.989567 H 10.985378 0 Z m 11.023,4.514539 V 12.01996 h 3.498767 3.498768 V 11.493264 10.966568 H 14.521767 11.023 V 7.4678 3.9690323 H 10.496303 9.9696071 V 7.4678 10.966568 H 6.4708393 2.9720715 v 0.526696 0.526696 h 3.4987678 3.4987678 v 3.498768 3.498768 H 10.496303 11.023 Z"
     id="path131" />
  <path
     style="fill:none;stroke-width:0.0376212"
     d="M 10.007228,15.481107 V 11.982339 H 6.5084605 3.0096927 V 11.493264 11.004189 H 6.5084605 10.007228 V 7.5054212 4.0066534 h 0.489075 0.489075 v 3.4987678 3.4987678 h 3.498768 3.498768 v 0.489075 0.489075 h -3.498768 -3.498768 v 3.498768 3.498768 h -0.489075 -0.489075 z"
     id="path170" />
  <path
     style="fill:#bd93f9;stroke-width:0.0376212;fill-opacity:0.77999997"
     d="M 10.007228,15.481107 V 11.982339 H 6.5084605 3.0096927 V 11.493264 11.004189 H 6.5084605 10.007228 V 7.5054212 4.0066534 h 0.489075 0.489075 v 3.4987678 3.4987678 h 3.498768 3.498768 v 0.489075 0.489075 h -3.498768 -3.498768 v 3.498768 3.498768 h -0.489075 -0.489075 z"
     id="path209" />
  <path
     style="fill:#282a36;fill-opacity:0.75294119;stroke-width:0.0376212;opacity:1"
     d="M 0.01881058,11.004189 V 0.01881058 H 11.004189 21.989567 V 11.004189 21.989567 H 11.004189 0.01881058 Z M 11.004189,15.518728 V 12.01996 h 3.498768 3.498768 V 11.493264 10.966568 H 14.502957 11.004189 V 7.4678 3.9690323 H 10.496303 9.9884177 V 7.4678 10.966568 H 6.4896499 2.9908821 v 0.526696 0.526696 h 3.4987678 3.4987678 v 3.498768 3.498768 h 0.5078853 0.507886 z"
     id="path5059" />
  <path
     style="opacity:1;fill:#1b1b1b;fill-opacity:0.99607843;stroke-width:0.0376212"
     d="M 10.026039,15.481107 V 11.982339 H 6.5272711 3.0285033 V 11.493264 11.004189 H 6.5272711 10.026039 V 7.5054212 4.0066534 h 0.470264 0.470265 v 3.4987678 3.4987678 h 3.498768 3.498767 v 0.489075 0.489075 h -3.498767 -3.498768 v 3.498768 3.498768 h -0.470265 -0.470264 z"
     id="path11684" />
  <path
     style="opacity:1;fill:#bd93f9;fill-opacity:0.75;stroke-width:0.0376212"
     d="M 0.01881058,11.004189 V 0.01881058 H 11.004189 21.989567 V 11.004189 21.989567 H 11.004189 0.01881058 Z M 11.004189,15.518728 V 12.01996 h 3.498768 3.498768 V 11.493264 10.966568 H 14.502957 11.004189 V 7.4678 3.9690323 H 10.496303 9.9884177 V 7.4678 10.966568 H 6.4896499 2.9908821 v 0.526696 0.526696 h 3.4987678 3.4987678 v 3.498768 3.498768 h 0.5078853 0.507886 z"
     id="path12278" />
  <path
     style="fill:#bd93f9;fill-opacity:1;stroke-width:0.0376212"
     d="M 0.01881058,11.004189 V 0.01881058 H 11.004189 21.989567 V 11.004189 21.989567 H 11.004189 0.01881058 Z M 11.004189,15.518728 V 12.01996 h 3.498768 3.498767 V 11.493264 10.966568 H 14.502957 11.004189 V 7.4678 3.9690322 H 10.496303 9.9884176 V 7.4678 10.966568 H 6.4896498 2.9908821 v 0.526696 0.526696 h 3.4987677 3.4987678 v 3.498768 3.498768 h 0.5078854 0.507886 z"
     id="path868" />
  <path
     style="fill:#8ec07c;fill-opacity:1;stroke-width:0.0376212"
     d="M 0.01881058,11.004189 V 0.01881058 H 11.004189 21.989567 V 11.004189 21.989567 H 11.004189 0.01881058 Z M 11.004189,15.518728 V 12.01996 h 3.498768 3.498767 V 11.493264 10.966568 H 14.502957 11.004189 V 7.4678 3.9690322 H 10.496303 9.9884176 V 7.4678 10.966568 H 6.4896498 2.9908821 v 0.526696 0.526696 h 3.4987677 3.4987678 v 3.498768 3.498768 h 0.5078854 0.507886 z"
     id="path1203" />
</svg>
