<?xml version="1.0" encoding="UTF-8" standalone="no"?>
<svg
   viewBox="0 0 22.000001 22"
   version="1.1"
   id="svg16"
   sodipodi:docname="close_down.svg"
   inkscape:version="1.3 (0e150ed6c4, 2023-07-21)"
   xmlns:inkscape="http://www.inkscape.org/namespaces/inkscape"
   xmlns:sodipodi="http://sodipodi.sourceforge.net/DTD/sodipodi-0.dtd"
   xmlns="http://www.w3.org/2000/svg"
   xmlns:svg="http://www.w3.org/2000/svg">
  <defs
     id="defs20" />
  <sodipodi:namedview
     id="namedview18"
     pagecolor="#ffffff"
     bordercolor="#666666"
     borderopacity="1.0"
     inkscape:pageshadow="2"
     inkscape:pageopacity="0.0"
     inkscape:pagecheckerboard="0"
     showgrid="false"
     inkscape:zoom="37.590909"
     inkscape:cx="11.026602"
     inkscape:cy="11"
     inkscape:window-width="1920"
     inkscape:window-height="1002"
     inkscape:window-x="0"
     inkscape:window-y="0"
     inkscape:window-maximized="1"
     inkscape:current-layer="svg16"
     inkscape:showpageshadow="2"
     inkscape:deskcolor="#d1d1d1" />
  <g
     transform="translate(0-1030.36)"
     id="g14">
    <g
       color="#000"
       id="g6">
      <path
         fill="#3daee9"
         d="m0 1030.36h22v22h-22z"
         id="path2" />
      <path
         fill="#eff0f1"
         fill-opacity="0"
         d="m0 1030.36h22v22h-22z"
         id="path4" />
    </g>
    <g
       fill="#da4453"
       id="g12">
      <path
         transform="matrix(.70711.70711-.70711.70711 0 0)"
         d="m733.32 728.08h21.628v1h-21.628z"
         id="path8" />
      <path
         transform="matrix(.70711-.70711-.70711-.70711 0 0)"
         d="m-739.39-744.63h21.628v1h-21.628z"
         id="path10" />
    </g>
  </g>
  <path
     style="fill:#ff5555;stroke-width:0.0011705"
     d="M 0.01330109,11 V 0.01330109 H 11 21.986699 V 11 21.986699 H 11 0.01330109 Z M 15.369353,14.664419 11.718283,11.013349 15.369341,7.3622189 19.020399,3.7110882 18.654655,3.3453447 18.288912,2.979601 14.637769,6.6306712 10.986626,10.281741 7.342243,6.6372853 3.6978598,2.9928295 3.3387304,3.3519588 2.979601,3.7110882 6.6239843,7.3555441 10.268367,11 6.6239843,14.644456 2.979601,18.288912 l 0.3657437,0.365743 0.3657435,0.365744 3.6444681,-3.644395 3.6444677,-3.644396 3.65107,3.651071 3.65107,3.65107 0.35913,-0.35913 0.359129,-0.359129 z"
     id="path874" />
  <path
     style="fill:#ff5555;stroke-width:0.0011705"
     d="M 3.3584812,18.641446 3.0196801,18.301892 6.664012,14.657632 10.308344,11.013374 6.6636712,7.3686289 3.018999,3.7238843 3.3651752,3.3784766 3.7113514,3.0330687 7.3556758,6.6773203 11,10.321572 14.644451,6.6771934 18.288902,3.0328149 18.628044,3.3719563 18.967185,3.7110976 15.322807,7.3555489 11.678428,11 l 3.651287,3.651359 3.651286,3.651359 -0.346188,0.34542 -0.346189,0.34542 -3.650938,-3.650939 -3.650939,-3.650938 -3.6447322,3.64466 -3.6447326,3.64466 z"
     id="path913" />
  <path
     style="fill:#8ec07c;fill-opacity:1;stroke-width:0.0011705"
     d="M 0.01330109,11 V 0.01330109 H 11 21.986699 V 11 21.986699 H 11 0.01330109 Z M 7.3621162,15.396046 11,11.758235 l 3.637884,3.637811 c 2.000836,2.000796 3.650005,3.637811 3.664819,3.637811 0.01481,0 0.188292,-0.161689 0.385505,-0.359308 L 19.046776,18.315241 15.395831,14.664295 11.744885,11.013349 15.395945,7.3622167 19.047005,3.711084 18.667961,3.3320394 18.288916,2.9529946 14.637771,6.6040669 10.986626,10.255139 7.3555021,6.6239422 C 5.3583836,4.6267836 3.7122241,2.9927449 3.6973695,2.9927449 c -0.014855,0 -0.1883589,0.1616832 -0.3855651,0.3592961 L 2.9532481,3.7113372 6.5975066,7.3556686 10.241765,11 6.5974999,14.644338 2.9532348,18.288676 3.3251122,18.661267 c 0.2045327,0.204925 0.3780071,0.37259 0.3854988,0.37259 0.00749,0 1.650669,-1.637015 3.6515052,-3.637811 z"
     id="path1028" />
  <path
     style="fill:#f2594b;fill-opacity:1;stroke-width:0.0011705"
     d="M 3.3717815,18.628146 3.0462964,18.301877 6.67732,14.670927 c 1.9970629,-1.997023 3.631023,-3.642922 3.631023,-3.657553 0,-0.01463 -1.63412,-1.6607555 -3.6313784,-3.6580539 L 3.0455859,3.7238688 3.3784764,3.3917776 3.7113669,3.0596863 7.3556835,6.7039302 11,10.348174 14.644448,6.7037982 18.288897,3.0594224 18.614737,3.3852627 18.940578,3.7111029 15.296202,7.3555516 11.651826,11 l 3.651294,3.651367 3.651294,3.651366 -0.33289,0.332092 -0.332891,0.332091 -3.637702,-3.63763 c -2.000737,-2.000696 -3.649641,-3.637629 -3.664232,-3.637629 -0.01459,0 -1.6606827,1.63412 -3.6579811,3.631378 l -3.6314513,3.631379 z"
     id="path1067" />
</svg>
