<?xml version="1.0" encoding="UTF-8" standalone="no"?>
<svg
   viewBox="0 0 22.000001 22"
   version="1.1"
   id="svg16"
   sodipodi:docname="close_up.svg"
   inkscape:version="1.3 (0e150ed6c4, 2023-07-21)"
   xmlns:inkscape="http://www.inkscape.org/namespaces/inkscape"
   xmlns:sodipodi="http://sodipodi.sourceforge.net/DTD/sodipodi-0.dtd"
   xmlns="http://www.w3.org/2000/svg"
   xmlns:svg="http://www.w3.org/2000/svg">
  <defs
     id="defs20" />
  <sodipodi:namedview
     id="namedview18"
     pagecolor="#ffffff"
     bordercolor="#666666"
     borderopacity="1.0"
     inkscape:pageshadow="2"
     inkscape:pageopacity="0.0"
     inkscape:pagecheckerboard="0"
     showgrid="false"
     inkscape:zoom="32"
     inkscape:cx="9.921875"
     inkscape:cy="11.453125"
     inkscape:window-width="1920"
     inkscape:window-height="1002"
     inkscape:window-x="0"
     inkscape:window-y="0"
     inkscape:window-maximized="1"
     inkscape:current-layer="svg16"
     inkscape:showpageshadow="2"
     inkscape:deskcolor="#d1d1d1" />
  <g
     transform="translate(0-1030.36)"
     id="g14"
     style="opacity:0">
    <g
       color="#000"
       id="g6">
      <path
         fill="#3daee9"
         d="m0 1030.36h22v22h-22z"
         id="path2" />
      <path
         fill="#eff0f1"
         fill-opacity="0"
         d="m0 1030.36h22v22h-22z"
         id="path4" />
    </g>
    <g
       fill="#da4453"
       id="g12">
      <path
         transform="matrix(.70711.70711-.70711.70711 0 0)"
         d="m733.32 728.08h21.628v1h-21.628z"
         id="path8" />
      <path
         transform="matrix(.70711-.70711-.70711-.70711 0 0)"
         d="m-739.39-744.63h21.628v1h-21.628z"
         id="path10" />
    </g>
  </g>
  <path
     style="fill:#f28fad;stroke-width:0.00118258;fill-opacity:1"
     d="M 3.2565632,18.66474 2.9140154,18.32193 6.5986511,14.642734 10.283286,10.963541 6.5983073,7.283853 2.9133269,3.6041675 3.2633312,3.2554485 3.6133358,2.9067293 l 3.6846286,3.6791874 3.6846266,3.6791873 3.684756,-3.6793154 3.684756,-3.6793155 0.342893,0.3423926 0.342892,0.3423926 -3.684683,3.6793894 -3.684683,3.6793903 3.691668,3.686363 3.691666,3.686362 -0.350016,0.348733 -0.350019,0.348731 -3.691314,-3.68594 -3.691316,-3.685938 -3.6850387,3.679601 -3.6850411,3.679598 z"
     id="path913" />
  <path
     style="fill:#1b1b1b;fill-opacity:0.93333334;stroke-width:0.00117279"
     d="M 0.0499782,11.014492 V 0.0154858 H 11.067399 22.084819 V 11.014492 22.013497 H 11.067399 0.0499782 Z m 7.369365,4.40097 3.6480558,-3.641886 3.648055,3.641886 c 2.006431,2.003037 3.660212,3.641885 3.675067,3.641885 0.01485,0 0.188819,-0.16187 0.386583,-0.35971 l 0.359571,-0.35971 -3.661154,-3.655036 -3.661155,-3.655036 3.661269,-3.6552221 3.66127,-3.6552221 L 18.756801,3.3379412 18.376696,2.9584726 14.715341,6.6136339 11.053988,10.268796 7.4127106,6.6335319 C 5.4100076,4.6341349 3.7592448,2.9982671 3.7443487,2.9982671 c -0.014897,0 -0.1888857,0.1618641 -0.3866433,0.3596985 l -0.359559,0.3596984 3.6544491,3.6484129 3.6544485,3.6484151 -3.6544552,3.64842 -3.6544557,3.64842 0.3729173,0.373008 c 0.2051046,0.205155 0.3790641,0.373007 0.3865768,0.373007 0.00751,0 1.6552849,-1.638848 3.661716,-3.641885 z"
     id="path1028" />
  <path
     style="fill:#f36b5f;fill-opacity:0.96078432;stroke-width:0.00117996"
     d="m 3.3741712,18.690256 -0.3295394,-0.32749 3.6762547,-3.644532 c 2.0219398,-2.004494 3.6762525,-3.656549 3.6762525,-3.671236 0,-0.01468 -1.6544747,-1.6669685 -3.6766129,-3.6717381 L 3.0439128,3.7302243 3.3809496,3.3968909 3.7179873,3.0635573 l 3.6897123,3.6578758 3.6897114,3.6578779 3.689848,-3.6580103 3.689847,-3.6580083 0.329899,0.3270592 0.3299,0.3270592 -3.689774,3.658082 -3.689773,3.6580812 3.696777,3.665026 3.696778,3.665027 -0.337028,0.333333 -0.337047,0.333333 -3.683016,-3.651237 c -2.025661,-2.008181 -3.695105,-3.651236 -3.709876,-3.651236 -0.01477,0 -1.6813694,1.640232 -3.7035472,3.644961 l -3.6766882,3.644964 z"
     id="path1067" />
</svg>
